<?xml version="1.0" encoding="UTF-8" ?>
<!DOCTYPE svg PUBLIC "-//W3C//DTD SVG 1.1//EN" "http://www.w3.org/Graphics/SVG/1.1/DTD/svg11.dtd">
<svg width="1702pt" height="428pt" viewBox="0 0 1702 428" version="1.1" xmlns="http://www.w3.org/2000/svg">
<g id="#000000ff">
<path fill="#000000" opacity="1.00" d=" M 978.72 0.00 L 988.22 0.00 C 999.34 1.43 1009.99 7.29 1016.25 16.72 C 1026.00 30.57 1024.37 51.31 1012.08 63.10 C 996.58 78.81 968.07 78.18 953.38 61.68 C 942.26 49.64 941.38 30.02 950.59 16.64 C 956.80 7.16 967.62 1.38 978.72 0.00 Z" />
<path fill="#000000" opacity="1.00" d=" M 359.81 1.52 C 367.37 1.48 374.93 1.50 382.49 1.50 C 382.51 35.67 382.50 69.84 382.50 104.01 C 382.65 128.71 382.21 153.43 382.73 178.13 C 388.62 169.69 394.69 161.31 402.17 154.18 C 419.48 136.60 443.47 126.30 467.94 124.39 C 488.48 122.95 509.76 124.81 528.70 133.37 C 546.17 141.21 561.43 153.93 572.13 169.82 C 582.52 184.88 589.26 202.22 593.19 220.03 C 598.02 240.97 599.02 262.61 597.92 284.02 C 596.73 304.17 593.04 324.24 586.06 343.21 C 576.37 369.92 558.92 394.42 534.58 409.58 C 516.65 421.18 495.45 426.89 474.25 428.00 L 458.48 428.00 C 438.90 426.99 419.45 420.30 404.20 407.83 C 395.73 401.12 389.00 392.59 382.72 383.89 C 382.23 396.25 382.63 408.62 382.50 420.98 C 360.67 421.02 338.84 420.99 317.00 421.00 C 316.99 316.30 317.01 211.60 316.99 106.90 C 316.98 105.52 317.25 104.16 317.78 102.89 C 331.84 69.12 345.77 35.30 359.81 1.52 M 448.17 178.28 C 428.43 180.39 409.88 191.27 398.45 207.50 C 387.21 223.24 382.05 242.75 381.99 261.96 C 382.04 276.30 381.93 290.65 382.04 304.99 C 382.78 329.37 395.99 353.60 417.56 365.57 C 434.51 375.36 455.43 376.54 474.08 371.45 C 489.00 367.33 502.29 357.81 510.98 345.01 C 522.43 328.27 527.42 308.01 529.39 288.06 C 531.17 266.61 530.96 244.36 523.47 223.91 C 518.15 209.08 508.53 195.32 494.80 187.19 C 480.98 178.66 464.09 176.50 448.17 178.28 Z" />
<path fill="#000000" opacity="1.00" d=" M 1396.02 1.50 C 1417.43 1.51 1438.84 1.47 1460.25 1.52 C 1460.25 141.42 1460.26 281.33 1460.24 421.24 C 1438.83 421.26 1417.42 421.25 1396.01 421.25 C 1395.92 406.33 1396.13 391.42 1395.90 376.51 C 1388.11 388.19 1379.53 399.69 1368.07 408.06 C 1351.50 420.59 1330.86 426.85 1310.28 428.00 L 1294.70 428.00 C 1279.13 426.97 1263.61 423.35 1249.68 416.22 C 1236.29 409.53 1224.54 399.70 1215.24 388.00 C 1205.92 376.28 1199.16 362.70 1194.26 348.60 C 1187.81 329.79 1185.44 309.83 1185.07 290.02 C 1184.84 266.67 1187.37 243.07 1194.74 220.83 C 1203.24 194.24 1218.98 169.35 1241.88 152.94 C 1257.88 141.36 1276.90 134.17 1296.48 131.78 C 1317.31 129.29 1339.19 130.60 1358.45 139.54 C 1374.09 146.61 1386.84 158.93 1395.91 173.37 C 1396.13 116.08 1395.92 58.79 1396.02 1.50 M 1322.29 183.35 C 1310.46 183.94 1298.64 187.18 1288.65 193.65 C 1275.43 201.89 1266.02 215.17 1260.52 229.57 C 1252.60 250.35 1250.96 272.95 1251.95 294.99 C 1252.74 308.42 1255.39 321.83 1260.84 334.18 C 1266.27 346.70 1274.98 358.04 1286.61 365.38 C 1301.13 374.45 1319.09 377.37 1335.86 374.51 C 1355.77 370.95 1373.30 357.74 1383.36 340.36 C 1392.27 325.17 1396.36 307.51 1396.67 289.99 C 1396.82 278.00 1396.78 266.00 1396.69 254.01 C 1396.23 231.77 1385.58 209.62 1367.56 196.35 C 1354.67 186.73 1338.29 182.23 1322.29 183.35 Z" />
<path fill="#000000" opacity="1.00" d=" M 172.37 1.51 C 184.93 1.48 197.49 1.52 210.04 1.48 C 152.56 141.58 94.96 281.64 37.46 421.73 C 24.97 421.78 12.49 421.73 0.00 421.75 L 0.00 421.12 C 57.48 281.26 114.93 141.38 172.37 1.51 Z" />
<path fill="#000000" opacity="1.00" d=" M 89.94 421.75 C 147.49 281.67 204.99 141.57 262.54 1.48 C 275.09 1.52 287.65 1.48 300.21 1.51 C 242.69 141.59 185.12 281.65 127.61 421.74 C 115.05 421.76 102.49 421.74 89.94 421.75 Z" />
<path fill="#000000" opacity="1.00" d=" M 1075.75 1.51 C 1097.08 1.48 1118.40 1.52 1139.73 1.49 C 1139.76 141.16 1139.77 280.84 1139.72 420.52 C 1118.40 420.48 1097.08 420.52 1075.75 420.50 C 1075.75 280.83 1075.75 141.17 1075.75 1.51 Z" />
<path fill="#000000" opacity="1.00" d=" M 1491.94 421.75 C 1549.48 281.66 1607.01 141.57 1664.59 1.50 C 1677.05 1.50 1689.53 1.50 1702.00 1.49 L 1702.00 2.07 C 1644.50 141.94 1587.09 281.85 1529.62 421.74 C 1517.05 421.77 1504.50 421.74 1491.94 421.75 Z" />
<path fill="#000000" opacity="1.00" d=" M 950.75 137.51 C 972.00 137.48 993.25 137.50 1014.50 137.51 C 1014.51 231.83 1014.51 326.16 1014.50 420.49 C 993.25 420.50 972.00 420.52 950.75 420.49 C 950.75 326.16 950.75 231.84 950.75 137.51 Z" />
<path fill="#000000" opacity="1.00" d=" M 633.00 137.50 C 654.58 137.50 676.17 137.49 697.75 137.51 C 697.75 190.69 697.75 243.86 697.75 297.04 C 697.46 314.34 698.96 332.35 707.04 347.96 C 713.15 359.99 724.53 369.19 737.63 372.49 C 756.28 377.47 777.48 374.95 793.18 363.24 C 804.99 354.71 812.62 341.53 816.82 327.79 C 820.10 316.84 820.60 305.32 820.50 293.96 C 820.50 241.81 820.49 189.66 820.50 137.50 C 841.92 137.50 863.33 137.48 884.75 137.51 C 884.73 231.85 884.78 326.18 884.73 420.51 C 863.32 420.49 841.91 420.51 820.50 420.50 C 820.44 406.22 820.60 391.94 820.42 377.67 C 818.61 378.86 817.82 380.95 816.66 382.69 C 806.93 397.72 793.17 410.26 776.93 417.91 C 762.39 424.88 746.11 428.05 730.03 427.31 C 709.93 426.92 689.31 422.07 672.81 410.17 C 657.81 399.60 647.22 383.66 641.31 366.44 C 634.63 347.06 632.74 326.36 633.00 305.97 C 633.00 249.82 633.00 193.66 633.00 137.50 Z" />
</g>
</svg>
